<?xml version="1.0" encoding="utf-8"?>
<!-- Generator: Adobe Illustrator 21.0.0, SVG Export Plug-In . SVG Version: 6.00 Build 0)  -->
<svg version="1.1" id="Layer_1" xmlns="http://www.w3.org/2000/svg" xmlns:xlink="http://www.w3.org/1999/xlink" x="0px" y="0px"
	 viewBox="0 0 1641.1 283.7" style="enable-background:new 0 0 1641.1 283.7;" xml:space="preserve">
<style type="text/css">
	.st0{fill:#009736;}
	.st1{fill:#00A5EA;}
	.st2{fill:#97BF00;}
	.st3{fill:#656D72;}
	.st4{fill:#282828;}
	.st5{fill:#FFFFFF;}
	.st6{fill:#666D72;}
</style>
<g>
	<path class="st0" d="M183.4,100.3c-44.7,2.5-80.6,38.3-83.1,83.1C145.1,180.9,180.9,145.1,183.4,100.3z"/>
	<path class="st1" d="M183.4,100.3c0.1-1.6,0.2-3.2,0.2-4.9V0h-83.5v95.5c0,2.5-2.1,4.6-4.6,4.6H0v83.5h95.5c1.6,0,3.2-0.2,4.9-0.2
		C102.8,138.7,138.7,102.8,183.4,100.3z"/>
	<path class="st2" d="M188.3,100.1c-1.6,0-3.2,0.2-4.9,0.2c-2.5,44.7-38.3,80.6-83.1,83.1c-0.1,1.6-0.2,3.2-0.2,4.9v95.5h83.5v-95.5
		c0-2.5,2.1-4.6,4.6-4.6h95.5v-83.5H188.3z"/>
</g>
<g>
	<path class="st5" d="M396.6,223h-9.9c-8.5,0-15.4-6.9-15.4-15.4V75.9c0-8.5,6.9-15.4,15.4-15.4h103.9V11.1H386.7
		c-35.7,0-64.8,29.1-64.8,64.8v131.8c0,35.7,29.1,64.8,64.8,64.8h9.9V223z"/>
	<path class="st1" d="M462.9,223h-58.7v49.5h58.7c31.9,0,49.5-22.5,49.5-49.5v-58.4h-49.5v43.1V223z"/>
	<path class="st2" d="M1098.9,63.7v55.6h-47.1V63.7c0-34,13.1-47.1,47.1-47.1h55.6v47.1h-54.1H1098.9z"/>
	<path class="st5" d="M1153.4,126.4h-11.2h-21.3h-7.3h-59.9c6.6,27,30.9,47.1,59.9,47.1h28.6h11.2c8.1,0,14.6,6.6,14.6,14.6v22.6
		c0,8.1-6.6,14.6-14.6,14.6H1052v47.1h101.4c34,0,61.7-27.7,61.7-61.7v-22.6C1215.1,154.1,1187.4,126.4,1153.4,126.4z"/>
	<g>
		<g>
			<path class="st5" d="M527.7,122.8h85.9c12.3,0,21.8,3.1,28.3,9.2c6.5,6.2,9.8,14.9,9.8,26.1v79.2c0,9.9-3.3,18.2-9.8,24.9
				c-6.5,6.6-14.7,9.9-24.4,9.9h-51.9c-12.3,0-21.9-2.9-28.6-8.8c-6.7-5.9-10.1-14.2-10.1-24.9v-30.4c0-11,3.3-19.7,9.8-26.1
				c6.5-6.4,15.5-9.5,26.9-9.5h50.5V169c0-6.8-3.4-10.2-10.2-10.2h-76.2V122.8z M565,226.9c0,2.2,1,4.2,2.9,5.9
				c1.9,1.8,4.2,2.6,6.8,2.6h29.3c6.8,0,10.2-2.8,10.2-8.6v-10.5c0-5.9-3.5-8.8-10.5-8.8h-29c-3.9,0-6.4,0.6-7.7,1.9
				c-1.3,1.3-1.9,4-1.9,8V226.9z"/>
			<path class="st5" d="M664.5,272.2L664,158.7c0-11,3.1-19.8,9.3-26.2c6.2-6.4,14.8-9.7,25.8-9.7h29c4.2,0,9,0.6,14.2,1.7
				c5.2,1.1,10.4,5,15.3,11.6l5.2-6.4c5.2-4.6,13.3-6.9,24.3-6.9h29c10.5,0,18.9,3.3,25.3,9.8c6.4,6.5,9.5,15.2,9.5,26.1v113.5
				h-37.8v-100c0-7.5-3.4-11.3-10.2-11.3h-16.6c-6.6,0-9.9,3.1-9.9,9.4v101.9h-37.6V170.3c0-6.3-3.3-9.4-9.9-9.4h-16.6
				c-7,0-10.5,3.8-10.5,11.3l0.3,100H664.5z"/>
			<path class="st5" d="M990.3,272.2h-82.8c-13.3,0-23.3-3.1-30.1-9.4c-4.2-3.7-7-7.7-8.4-12c-1.4-4.3-2.1-10.2-2.1-17.5l-0.6-75.4
				c0-10.3,3.4-18.7,10.1-25.3c6.7-6.5,15.8-9.8,27.2-9.8h51.1c11.4,0,20.2,3.2,26.5,9.5c6.3,6.4,9.4,15.2,9.4,26.6v29.8L905,221.4
				v2.5c0,7,2.5,10.5,7.5,10.5h77.9V272.2z M904.4,172.3v15.5l47.8-17.7c0-2.2-0.8-3.9-2.5-5.1c-1.7-1.2-3.9-2-6.6-2.3h-26.5
				c-3.3,0-6.2,0.9-8.6,2.8C905.6,167.2,904.4,169.5,904.4,172.3z"/>
		</g>
		<g>
			<path class="st5" d="M1238.1,123.3h85.9c12.3,0,21.8,3.1,28.3,9.2c6.5,6.2,9.8,14.9,9.8,26.1v79.2c0,9.9-3.3,18.2-9.8,24.9
				c-6.5,6.6-14.7,9.9-24.4,9.9h-51.9c-12.3,0-21.9-2.9-28.6-8.8c-6.7-5.9-10.1-14.2-10.1-24.9v-30.4c0-11,3.3-19.7,9.8-26.1
				c6.5-6.4,15.5-9.5,26.9-9.5h50.5v-3.6c0-6.8-3.4-10.2-10.2-10.2h-76.2V123.3z M1275.4,227.4c0,2.2,1,4.2,2.9,5.9
				c1.9,1.8,4.2,2.6,6.8,2.6h29.3c6.8,0,10.2-2.9,10.2-8.6v-10.5c0-5.9-3.5-8.8-10.5-8.8h-29c-3.9,0-6.4,0.6-7.7,1.9
				c-1.3,1.3-1.9,4-1.9,8V227.4z"/>
			<path class="st5" d="M1388,272.6V67.5h38.1v55.8h25.4v38.1h-25.4v111.3H1388z"/>
			<path class="st5" d="M1465.6,272.6V123.3h37.6v149.4H1465.6z"/>
			<g>
				<rect x="1527.2" y="234.8" class="st5" width="40.8" height="37.8"/>
				<path class="st5" d="M1608.1,179h-31.8c-7.5,0-11.3-2.4-11.3-7.2v-3.6c0-4.6,3.8-6.9,11.3-6.9h64.9l-0.3-38.1h-76.2
					c-11.4,0-20.4,3-27.1,9.1c-6.6,6.1-9.9,14.4-9.9,24.9v27.9c0,8.5,3.5,15.9,10.6,22.2c7.1,6.4,15.4,9.5,25,9.5h32.6
					c2.4,0,4.1,1.4,5.2,4.1l0.8,3.3v3.3c0,4.8-3,7.2-9.1,7.2h-4.6v37.8h16.8c9.2,0,16.3-2.2,21.3-6.6c9.4-7.5,14.1-16.4,14.1-26.5
					l0.6-27.3c0-8.6-3.4-16.3-10.1-23.1C1624.1,182.4,1616.5,179,1608.1,179z"/>
			</g>
		</g>
	</g>
</g>
</svg>
