<svg xmlns="http://www.w3.org/2000/svg" id="katman_1" data-name="katman 1" viewBox="0 0 1216.02 171.49"><defs><style>.cls-1{fill:#fff;}</style></defs><path class="cls-1" d="M162.75,160l6.35-3.86c15.84-9.6,31.76-19.06,47.17-29.33,8.27-5.51,15.32-12.2,20.3-20.87,4.41-7.7,6.74-16,5.87-24.85-1.48-15-9.33-25.8-23.33-31.46-13.7-5.53-27.3-4.68-40.3,2.66C168.77,58,159,64,149.15,70c-17,10.34-33.71,21.15-50.46,31.87-.78.5-1.48,1.13-2.23,1.68A21.13,21.13,0,0,1,63,89.83c-1.21-8,1.27-15,7.75-19.77,27.94-20.82,56.71-40.4,87.58-56.74A119.94,119.94,0,0,1,180.23,3.9a77.06,77.06,0,0,1,24.26-2.85A87.18,87.18,0,0,1,243.27,11c21.63,11.42,35.6,29,41.42,52.76,4.09,16.7,2.47,33.16-3.77,49.13a93.53,93.53,0,0,1-37,45.57,76.53,76.53,0,0,1-31.19,11.36c-16,2.28-31.37.17-45.82-7.34-1.15-.6-2.25-1.28-3.37-1.93A9.3,9.3,0,0,1,162.75,160Z"/><path class="cls-1" d="M124.07,11.71c-8.21,5-16.28,9.84-24.32,14.75-10.6,6.47-21.24,12.88-31.41,20C59.4,52.71,52.18,60.54,47.84,70.7s-5.07,20.7-.75,31.1c5.16,12.4,14.82,19.59,27.75,22.52,11.46,2.6,22.36.81,32.85-4.44,9.56-4.78,18.61-10.42,27.65-16.09,7.29-4.57,14.52-9.26,22.21-13.16a24.38,24.38,0,0,1,11.86-3c9.88.24,18.85,8.21,20.09,18,1.07,8.44-1.82,15.25-8.59,20.37a382.53,382.53,0,0,1-39.54,26.83,159,159,0,0,1-27.72,13,87.76,87.76,0,0,1-37.19,4.45c-17.52-1.67-33.35-7.68-47-18.81A77.2,77.2,0,0,1,1.56,105c-4.39-22.74.68-43.73,13-63.09A89.76,89.76,0,0,1,45.69,11.58,79.19,79.19,0,0,1,75.88,1.66c14.91-1.81,29.2.22,42.72,6.89,1.7.84,3.32,1.85,5,2.78C123.7,11.41,123.81,11.51,124.07,11.71Z"/><path class="cls-1" d="M654.8,49.8c7-9.66,16.59-14.6,28.13-16.06A48,48,0,0,1,708.38,37c11.89,5.14,19,14.39,22.47,26.66a59.84,59.84,0,0,1,2,16.31q0,29.93,0,59.85c0,1-.29,1.21-1.23,1.2-6.65,0-13.29-.05-19.94,0-1.13,0-1.3-.36-1.3-1.37q0-30.84,0-61.68a30.66,30.66,0,0,0-1.65-9.75,18.58,18.58,0,0,0-12.22-12.21,24.27,24.27,0,0,0-16.78.18c-7.89,3-11.9,9-13.13,17.17a51.16,51.16,0,0,0-.5,7.62q0,29.33,0,58.64c0,1.1-.25,1.41-1.38,1.4q-9.85-.09-19.7,0c-1.17,0-1.35-.36-1.35-1.42q0-29.43,0-58.88a35.51,35.51,0,0,0-1.88-12.64c-2.78-7.41-8.32-11.54-15.94-13a24.34,24.34,0,0,0-13.28,1c-7.1,2.71-11.16,8-12.65,15.35a48.35,48.35,0,0,0-.79,9.53c0,19.5,0,39,0,58.52,0,1.14-.23,1.49-1.44,1.48-6.61-.06-13.21-.05-19.82,0-.92,0-1.24-.19-1.24-1.19,0-19.87,0-39.74,0-59.61,0-8.23,1.16-16.26,4.7-23.81,5.79-12.34,15.59-19.55,28.82-22.15a47.48,47.48,0,0,1,28.78,2.84A37,37,0,0,1,654.16,49C654.35,49.27,654.56,49.51,654.8,49.8Z"/><path class="cls-1" d="M482.26,97.38c2.93,10.83,9.2,18.66,19.71,22.47a39,39,0,0,0,29.25-.9A26.5,26.5,0,0,0,544.68,106a1.85,1.85,0,0,1,2-1.16c7.09,0,14.18,0,21.27,0h1.19c.19.4,0,.67-.16,1-2.32,5.69-4.66,11.36-8.42,16.3a51.92,51.92,0,0,1-32.29,20.12c-11.58,2.27-23.1,1.88-34.2-2.33-19.2-7.29-30.79-21.13-34.33-41.37-2.34-13.38-.53-26.29,6.25-38.21,8.11-14.26,20.66-22.57,36.56-25.8a60.31,60.31,0,0,1,34.84,2.82c17.89,7.1,28.42,20.42,32.53,39,1.48,6.71,1.16,13.51,1.2,20.3,0,.53-.15.75-.69.69a8,8,0,0,0-.85,0H482.26Zm32.69-21q15.38,0,30.75,0c1,0,1.16-.2.8-1.13-3-7.61-7.94-13.44-15.37-17S515.81,54,507.79,55.37c-11.75,2-19.85,8.63-24.25,19.75-.41,1-.17,1.25.91,1.24C494.62,76.32,504.78,76.34,515,76.34Z"/><path class="cls-1" d="M920.47,128.88a57.6,57.6,0,0,1-5.27,4.66,48.89,48.89,0,0,1-26.69,9.79c-11.3.83-22-1.13-32-6.64-14.34-7.95-22.82-20.26-25.95-36.19-2.44-12.44-1.43-24.67,4-36.25,7.51-16.06,20.37-25.64,37.47-29.46a60.59,60.59,0,0,1,38.28,3.44c16,7,25.64,19.43,29.89,36.19a58.3,58.3,0,0,1,1.68,14.29c0,17,0,34.07,0,51.1,0,1.06-.33,1.25-1.3,1.24q-9.48-.06-19,0c-.94,0-1.24-.22-1.22-1.19C920.51,136.3,920.47,132.74,920.47,128.88Zm-1-40.8a42,42,0,0,0-.66-6.85c-1.92-9.52-6.76-17-15.27-22-7.18-4.16-15-5.23-23.1-4.14-11.23,1.52-19.71,7.14-24.86,17.36a35.58,35.58,0,0,0-2.91,23c1.85,10,7.08,17.67,16.11,22.57a35.68,35.68,0,0,0,20.67,3.86c8.07-.72,15.14-3.69,20.81-9.54C916.73,105.74,919.43,97.59,919.5,88.08Z"/><path class="cls-1" d="M1129,143.29c8.12,3.56,10.72,10.91,9.25,17.15-1.31,5.58-7.06,10.87-11.91,11-3.86.12-7.61,0-10.83-2.55a15.33,15.33,0,0,1-5.59-8.15c-1.53-6,.5-13.21,8.67-17.28-1.59-.17-2.91-.29-4.23-.45-8.37-1-16.14-3.71-22.87-8.91-8.23-6.37-12.65-14.73-12.83-25.22,0-1.13-.07-2.26-.16-3.39,0-.61.09-.86.77-.85q10.52,0,21,0c.6,0,.74.2.76.76a45.39,45.39,0,0,0,.33,5c.6,4.24,3.25,7,6.83,9a22.75,22.75,0,0,0,9.15,2.62,41.16,41.16,0,0,0,16.59-1.32,16.31,16.31,0,0,0,6-3.35,11.33,11.33,0,0,0,3.88-9.76,4.75,4.75,0,0,0-2.62-4.08,37.07,37.07,0,0,0-11.3-3.48c-6.37-1.16-12.86-1.51-19.22-2.69-7.17-1.32-14.06-3.33-20-7.89-6.2-4.78-9.11-11.12-9.61-18.78A33.42,33.42,0,0,1,1085.37,51c4.25-7.19,10.73-11.62,18.38-14.53a53,53,0,0,1,22-3,48.65,48.65,0,0,1,20.46,5.43c9.84,5.2,15.63,13.29,17.26,24.3.37,2.49.27,5,.39,7.52,0,.75-.34.73-.87.73-2.75,0-5.51,0-8.26,0h-11.31c-1.7,0-1.7,0-1.75-1.76a22.25,22.25,0,0,0-.39-4.47c-1-4.45-4.15-7.06-8.13-8.83a20.19,20.19,0,0,0-6.58-1.58c-5.53-.44-11-.37-16.17,2.11-4.79,2.32-7.28,6.11-7,11.56a4.88,4.88,0,0,0,2.73,4.38,38.18,38.18,0,0,0,11.43,3.46c6.37,1.15,12.86,1.48,19.23,2.67s12.47,3,18,6.62c7.68,5.06,11.3,12.22,11.69,21.3.65,15.53-9,27.19-21.54,32.49a50.6,50.6,0,0,1-14.38,3.7C1130,143.1,1129.56,143.19,1129,143.29Z"/><path class="cls-1" d="M422.09,57.06c-9,0-18,0-27,0-1.05,0-1.24.3-1.24,1.29q0,21.06,0,42.12a31.73,31.73,0,0,0,1.46,10.64c2.14,6.12,6.77,9.29,12.87,10.5a25.82,25.82,0,0,0,15.71-1.43c6-2.63,8.68-7.56,9.5-13.77a86.47,86.47,0,0,0,.3-11c0-.88.18-1.16,1.12-1.16,6.65,0,13.29,0,19.94,0,.5,0,1-.16,1,.72,0,6.11.05,12.2-1.21,18.24a36.73,36.73,0,0,1-30.22,29.37c-10.17,1.81-20.2,1.37-29.83-2.54-11.82-4.8-18.64-13.91-21.66-26.07a52.59,52.59,0,0,1-1.41-12.75q0-21.42,0-42.85c0-1.08-.26-1.34-1.32-1.31-2.51.09-5,0-7.54,0-.77,0-.93-.23-.93-1q0-9.66,0-19.3c0-.88.34-1,1.07-1,2.51,0,5,0,7.54,0,1,0,1.19-.29,1.18-1.22,0-10.4,0-20.8,0-31.2,0-1,.17-1.37,1.3-1.36,6.65.07,13.29.06,19.94,0,1.05,0,1.24.31,1.23,1.28,0,10.36,0,20.72,0,31.08,0,1.08.22,1.42,1.38,1.42q26.81-.06,53.61,0c1.75,0,1.53-.19,1.53,1.57,0,6.16,0,12.31,0,18.46,0,1-.26,1.2-1.21,1.19C440.16,57.05,431.13,57.06,422.09,57.06Z"/><path class="cls-1" d="M1002.09,57.06c-9,0-18,0-27,0-.9,0-1.23.16-1.23,1.17,0,14.2,0,28.4,0,42.61a35.79,35.79,0,0,0,.84,8.18c1.48,6.35,5.44,10.35,11.61,12.13a26.87,26.87,0,0,0,14.29.17c7.54-1.92,11.93-7.16,12.81-14.93a99.27,99.27,0,0,0,.29-11c0-.9.21-1.14,1.13-1.14q9.92.07,19.82,0c.9,0,1.14.21,1.13,1.13,0,5.58.09,11.16-1,16.68-2.91,14.8-12.51,27.08-30.23,30.51a53.53,53.53,0,0,1-27.34-1.5c-13.24-4.38-21-13.76-24.37-27.08a55,55,0,0,1-1.42-13.35q0-21.14,0-42.25c0-1.11-.3-1.33-1.33-1.3-2.47.08-4.95,0-7.42,0-.74,0-1-.12-1-1q0-9.65,0-19.3c0-.74.2-1,.95-1,2.47,0,5-.06,7.42,0,1.23.06,1.42-.36,1.42-1.48,0-10.32,0-20.64,0-31,0-1.05.22-1.35,1.31-1.34q9.91.08,19.82,0c1,0,1.36.18,1.35,1.3,0,10.36,0,20.72-.06,31.08,0,1.11.28,1.4,1.4,1.4,17.91,0,35.83,0,53.74,0,1.07,0,1.43.2,1.42,1.37q-.09,9.34,0,18.69c0,1-.3,1.18-1.23,1.18C1020.17,57.05,1011.13,57.06,1002.09,57.06Z"/><path class="cls-1" d="M750.41,104.67c3.32,0,6.64,0,10,0,1,0,1.3.33,1.3,1.28a24.2,24.2,0,0,0,.41,5.31c.89,3.88,3.43,6.44,6.81,8.24,4.8,2.56,10.05,2.91,15.34,2.81a31.68,31.68,0,0,0,11.08-1.85c4-1.54,7.14-3.94,8.55-8.17a12.11,12.11,0,0,0,.41-5.28,4.39,4.39,0,0,0-2.45-3.4,33.17,33.17,0,0,0-10.08-3.31c-6.33-1.2-12.76-1.66-19.11-2.68-6-1-11.81-2.38-17.14-5.35-7.1-4-12-9.59-13.43-17.85C739.24,58,746.71,44.15,762,37.4a52.3,52.3,0,0,1,23.83-4,47.74,47.74,0,0,1,21.78,5.94c10.54,6,16,15.06,16.63,27.12.07,1.37.1,2.75.19,4.12,0,.61-.11.84-.78.84q-10.27,0-20.55,0c-.65,0-.81-.21-.83-.82,0-1.45-.09-2.91-.27-4.36-.53-4.26-3.11-7.08-6.69-9.11a19.89,19.89,0,0,0-8.21-2.36c-4.88-.42-9.73-.36-14.39,1.36-4.1,1.5-7.32,4-8.44,8.47a13.83,13.83,0,0,0-.32,2c-.33,3.6.58,5.17,3.84,6.73,3.73,1.79,7.75,2.46,11.78,3.16,6.7,1.16,13.52,1.41,20.17,2.91s13.15,3.85,18.57,8.42,8,10.66,8.58,17.69c1.41,17.71-10.29,30.54-25.42,35.31a62.81,62.81,0,0,1-24,2.45,48.66,48.66,0,0,1-21.29-6.38c-8.28-4.87-14-11.73-16.23-21.24a49.37,49.37,0,0,1-.88-10.37c0-.74.42-.63.86-.63Z"/><path class="cls-1" d="M1046.38,88.41q0-25.62,0-51.22c0-1,.2-1.37,1.32-1.36,6.6.06,13.2.05,19.81,0,1,0,1.37.15,1.37,1.29q0,51.28,0,102.57c0,1-.2,1.37-1.32,1.36q-9.9-.09-19.81,0c-1.18,0-1.37-.38-1.37-1.43Q1046.4,114,1046.38,88.41Z"/><path class="cls-1" d="M358.37,88.39c0,17.07,0,34.15,0,51.22,0,1.18-.31,1.46-1.48,1.45-6.56-.06-13.12-.05-19.69,0-1,0-1.31-.16-1.31-1.23q0-51.39,0-102.8c0-1,.32-1.19,1.23-1.18q10,.06,20.06,0c1,0,1.18.3,1.18,1.22Q358.35,62.72,358.37,88.39Z"/><path class="cls-1" d="M207.17,102a20.87,20.87,0,1,1,20.91-20.9A20.83,20.83,0,0,1,207.17,102Z"/><path class="cls-1" d="M332.49,14.47a14.59,14.59,0,0,1,29.18.14,14.59,14.59,0,1,1-29.18-.14Z"/></svg>